<svg version="1.2" xmlns="http://www.w3.org/2000/svg" viewBox="0 0 1240 1240" width="200" height="200">
	<title>vecteezy_illustration-file-not-found-or-404-error-page_6736566-ai</title>
	<style>
		.s0 { opacity: .2;fill: #231f20 } 
		.s1 { fill: #ececec } 
		.s2 { fill: #c7c7c7 } 
		.s3 { fill: #bbbbbb } 
		.s4 { fill: #78b9a5 } 
		.s5 { fill: #3c9379 } 
	</style>
	<g id="_Artboards_">
	</g>
	<g id="Layer 1">
		<path id="&lt;Path&gt;" class="s0" d="m772.2 1083.3c0 19-161.8 34.5-361.3 34.5-199.5 0-361.3-15.5-361.3-34.5 0-19.1 161.8-34.6 361.3-34.6 199.5 0 361.3 15.5 361.3 34.6z"/>
		<path id="&lt;Path&gt;" class="s0" d="m1213.5 1188.2c0 12.5-54.2 22.6-121 22.6-66.8 0-121-10.1-121-22.6 0-12.4 54.2-22.5 121-22.5 66.8 0 121 10.1 121 22.5z"/>
		<g id="&lt;Group&gt;">
			<g id="&lt;Group&gt;">
				<path id="&lt;Path&gt;" class="s1" d="m761.9 211.3v794.8c0 18.7-7.5 36.7-20.8 50-13.2 13.3-31.3 20.7-50 20.7h-572.4c-18.8 0-36.8-7.4-50.1-20.7-13.2-13.3-20.7-31.3-20.7-50v-869c0-18.8 7.5-36.8 20.7-50 13.3-13.3 31.3-20.8 50.1-20.8h493c5.4 0 10.5 2.1 14.3 5.8l130.4 126.2c1.7 1.7 3.1 3.7 4 5.9 1 2.3 1.5 4.7 1.5 7.1z"/>
				<path id="&lt;Path&gt;" class="s2" d="m761.9 211h-69.9c-19.9 0-39.1-7.7-53.4-21.6-14.4-13.8-22.8-32.7-23.5-52.6l-2.5-70.5c4.8 0 9.4 1.9 12.9 5.2l131.1 127c1.7 1.6 3 3.5 3.9 5.7 0.9 2.1 1.4 4.4 1.4 6.8z"/>
			</g>
			<g id="&lt;Group&gt;">
				<path id="&lt;Path&gt;" class="s3" d="m649 316.1h-529.1c-7.3 0-13.2 6-13.2 13.3 0 7.3 5.9 13.2 13.2 13.2h529.1c7.3 0 13.2-5.9 13.2-13.2 0-7.3-5.9-13.3-13.2-13.3zm-85.5 79.4h-442.4c-8 0-14.4 6.5-14.4 14.4 0 8 6.4 14.4 14.4 14.4h442.4c8 0 14.5-6.4 14.5-14.4 0-7.9-6.5-14.4-14.5-14.4zm0 81.7h-442.4c-8 0-14.4 6.5-14.4 14.5 0 7.9 6.4 14.4 14.4 14.4h442.4c8 0 14.5-6.5 14.5-14.4 0-8-6.5-14.5-14.5-14.5zm-169.7 82.3h-272.7c-8 0-14.4 6.5-14.4 14.4 0 8 6.4 14.5 14.4 14.5h272.7c8 0 14.4-6.5 14.4-14.5 0-7.9-6.4-14.4-14.4-14.4zm0 81.8h-272.7c-8 0-14.4 6.4-14.4 14.4 0 7.9 6.4 14.4 14.4 14.4h272.7c8 0 14.4-6.5 14.4-14.4 0-8-6.4-14.4-14.4-14.4zm0 81.7h-272.7c-8 0-14.4 6.5-14.4 14.4 0 8 6.4 14.4 14.4 14.4h272.7c8 0 14.4-6.4 14.4-14.4 0-7.9-6.4-14.4-14.4-14.4zm255.2 75.6h-529.1c-7.3 0-13.2 5.9-13.2 13.2 0 7.3 5.9 13.3 13.2 13.3h529.1c7.3 0 13.2-6 13.2-13.3 0-7.3-5.9-13.2-13.2-13.2zm-85.5 79.4h-442.4c-8 0-14.4 6.4-14.4 14.4 0 8 6.4 14.4 14.4 14.4h442.4c8 0 14.5-6.4 14.5-14.4 0-8-6.5-14.4-14.5-14.4zm108.1 81.7h-547.1c-9.8 0-17.8 6.5-17.8 14.4 0 8 8 14.4 17.8 14.4h547.1c9.9 0 17.9-6.4 17.9-14.4 0-7.9-8-14.4-17.9-14.4z"/>
			</g>
		</g>
		<g id="&lt;Group&gt;">
			<path id="&lt;Path&gt;" class="s4" d="m859 887l-30.5 30.5 71.8 71.8 30.5-30.5z"/>
			<path id="&lt;Path&gt;" class="s5" d="m641.4 993.5c169.7 0 307.2-137.6 307.2-307.3 0-169.6-137.5-307.2-307.2-307.2-169.7 0-307.2 137.6-307.2 307.2 0 169.7 137.5 307.3 307.2 307.3z"/>
			<path id="&lt;Path&gt;" class="s4" d="m641.4 946.8c143.9 0 260.5-116.6 260.5-260.5 0-144-116.6-260.6-260.5-260.6-143.9 0-260.6 116.6-260.6 260.6 0 143.9 116.7 260.5 260.6 260.5z"/>
			<path id="&lt;Path&gt;" class="s5" d="m901.7 957.3c-16.2 16.2-16.2 42.5 0 58.8l161.4 161.4c16.3 16.2 42.6 16.2 58.8 0 16.3-16.3 16.3-42.6 0-58.8l-161.4-161.4c-16.2-16.3-42.5-16.3-58.8 0z"/>
		</g>
		<g id="&lt;Group&gt;">
			<g id="&lt;Group&gt;">
				<path id="&lt;Path&gt;" class="s5" d="m544.3 622.5l30.6 30.5-20.4 20.4-30.5-30.6-30.5 30.6-20.4-20.4 30.5-30.5-30.5-30.6 20.4-20.3 30.5 30.5 30.5-30.5 20.4 20.3z"/>
				<path id="&lt;Path&gt;" class="s5" d="m779.1 622.5l30.6 30.5-20.4 20.4-30.5-30.6-30.6 30.6-20.3-20.4 30.5-30.5-30.5-30.6 20.3-20.3 30.6 30.5 30.5-30.5 20.4 20.3z"/>
			</g>
			<path id="&lt;Path&gt;" class="s5" d="m699 784.2h-115.2v28.8h115.2z"/>
		</g>
	</g>
</svg>